<svg width="32" height="32" viewBox="0 0 32 32" fill="none" xmlns="http://www.w3.org/2000/svg">
<rect width="32" height="32" rx="8" fill="#22B1A3" fill-opacity="0.12"/>
<path d="M22.5 16.0278C22.5 15.9631 22.4861 15.9031 22.4628 15.8478L20.767 11.8462H20.8088C21.0644 11.8462 21.2734 11.6385 21.2734 11.3846C21.2734 11.1308 21.0644 10.9231 20.8088 10.9231H17.3102C17.1197 10.3877 16.6086 10 16 10C15.3914 10 14.8849 10.3877 14.6898 10.9231H11.1912C10.9356 10.9231 10.7266 11.1308 10.7266 11.3846C10.7266 11.6385 10.9356 11.8462 11.1912 11.8462H11.233L9.53717 15.8478C9.51394 15.9031 9.5 15.9631 9.5 16.0278C9.5 17.357 10.5918 18.4416 11.9299 18.4416C13.268 18.4416 14.3598 17.357 14.3598 16.0278C14.3598 15.9678 14.3506 15.9031 14.3227 15.8478L12.6269 11.8462H14.6897C14.8291 12.2385 15.1404 12.5431 15.5353 12.6862V19.2308H13.7745C13.2076 19.2308 12.7477 19.6877 12.7477 20.2508V21.5385C12.7477 21.7923 12.9567 22 13.2123 22H18.7876C19.0431 22 19.2522 21.7923 19.2522 21.5385V20.2508C19.2522 19.6877 18.7922 19.2308 18.2254 19.2308H16.4646V12.6862C16.8595 12.5477 17.1661 12.2385 17.3102 11.8462H19.373L17.6772 15.8478C17.654 15.9078 17.64 15.9678 17.64 16.0278C17.64 17.357 18.7319 18.4416 20.07 18.4416C21.408 18.4416 22.5 17.3616 22.5 16.0278ZM18.3186 20.2509V21.0771H13.6725V20.2509C13.6725 20.2001 13.7144 20.154 13.7701 20.154H18.2256C18.2767 20.154 18.3232 20.1955 18.3232 20.2509H18.3186ZM21.3341 15.5664H18.7973L20.0657 12.5756L21.3341 15.5664ZM11.9256 12.5756L13.194 15.5664H10.6572L11.9256 12.5756ZM11.9256 17.5186C11.2566 17.5186 10.6897 17.0847 10.4946 16.4847H13.352C13.1568 17.0847 12.59 17.5186 11.921 17.5186H11.9256ZM15.9957 11.8463C15.7402 11.8463 15.5311 11.6386 15.5311 11.3847C15.5311 11.1309 15.7402 10.9232 15.9957 10.9232C16.2513 10.9232 16.4604 11.1309 16.4604 11.3847C16.4604 11.6386 16.2513 11.8463 15.9957 11.8463ZM20.0659 17.5186C19.3968 17.5186 18.83 17.0847 18.6349 16.4847H21.4922C21.2971 17.0847 20.7303 17.5186 20.0612 17.5186H20.0659Z" fill="#22B1A3"/>
</svg>
